<?xml version="1.0" encoding="UTF-8" standalone="no"?><!DOCTYPE svg PUBLIC "-//W3C//DTD SVG 1.1//EN" "http://www.w3.org/Graphics/SVG/1.1/DTD/svg11.dtd"><svg width="100%" height="100%" viewBox="0 0 5571 2259" version="1.1" xmlns="http://www.w3.org/2000/svg" xmlns:xlink="http://www.w3.org/1999/xlink" xml:space="preserve" xmlns:serif="http://www.serif.com/" style="fill-rule:evenodd;clip-rule:evenodd;stroke-linejoin:round;stroke-miterlimit:2;"><g><path d="M1185.58,1050.88c3.413,3.229 6.788,6.192 10.084,8.863l-5.917,-0.704l-4.167,-8.159Zm-920.95,-125.425c-33.675,17.15 -57.079,51.284 -59.087,91.055l-2.409,47.691c-1.579,31.204 10.396,61.575 32.851,83.304c2.879,2.788 5.904,5.379 9.041,7.804c0.134,15.084 0.425,31.013 0.917,47.888c1.983,68.317 -7.304,116.629 -34.659,205.571c-7.27,23.637 -12.558,44.829 -16.05,63.775c-60.904,165.692 -121.679,329.246 -181.12,487.358c-25.434,67.667 -16.125,143.504 24.921,203.009c41.05,59.512 108.637,95.145 180.929,95.395c4.337,0.017 8.679,0.025 13.033,0.025c60.537,0 122.467,-1.458 184.3,-4.337c46.992,-2.192 90.783,-19.171 126.129,-46.954c38.946,21.896 84.625,32.083 131.567,27.07c63.762,-6.8 129.437,-15.174 195.204,-24.908c10.838,-1.604 21.433,-4.079 31.771,-7.216c10.912,-0.113 21.875,-1 32.796,-2.759c59.404,-9.558 120.641,-20.471 182.008,-32.433c39.937,-7.796 75.6,-26.071 104.346,-51.625c36.954,11.608 76.991,13.521 116.112,4.433c62.404,-14.491 127.013,-30.433 192.038,-47.379c50.321,-13.117 92.733,-42.992 121.979,-82.667c26.833,11.134 55.592,16.875 84.6,16.875c20.854,0 41.842,-2.958 62.317,-8.987c58.029,-17.079 118.637,-35.492 180.137,-54.725c81.421,-25.467 139.833,-95.079 152.325,-177.55c8.509,8.525 17.717,16.454 27.679,23.587c37.963,27.171 82.988,41.242 128.492,41.242c23.908,-0 47.95,-3.888 71.167,-11.792c56.083,-19.108 114.325,-39.191 178.046,-61.404c44.512,-15.517 81.645,-44.321 107.595,-81.037c19.775,5.666 40.246,8.575 60.817,8.575c24.754,-0 49.646,-4.167 73.604,-12.642l73.413,-25.988c34.375,-12.17 68.745,-24.341 103.12,-36.491c40.375,-14.275 74.626,-39.492 99.892,-71.613c40.113,9.309 82.609,7.346 122.563,-6.583c62.737,-21.867 120.016,-41.621 175.112,-60.387c16.446,-5.605 31.888,-13.034 46.163,-21.988c16.804,-1.546 33.545,-4.992 49.883,-10.463c137.654,-46.1 261.229,-85.616 377.792,-120.82c16.095,-4.863 31.283,-11.48 45.441,-19.542c16.346,-0.967 32.688,-3.729 48.721,-8.396c57.959,-16.883 115.309,-32.971 170.454,-47.812c37.125,-9.992 69.896,-29.104 96.167,-54.534c35.333,9.854 73.25,10.934 110.292,2.117c60.875,-14.471 121.375,-27.921 179.833,-39.975c49.458,-10.196 92.125,-36.496 123.083,-72.704c56.75,18.104 114.459,24.558 167.792,24.558c32.5,0 63.333,-2.383 91.375,-5.962c87.875,-11.042 164.125,-30.642 227.708,-50.817c24.292,8.992 50.167,13.762 76.542,13.762c3.333,0 6.75,-0.079 10.125,-0.233c54.125,-2.487 108.292,-3.746 161.166,-3.746c1.792,0 3.584,0 5.292,0.004c58.459,0 114.584,-23.208 155.959,-64.533c41.458,-41.408 64.75,-97.6 64.75,-156.2l-0,-87.296c-0,-16.637 -1.834,-32.925 -5.375,-48.633l-0,-0.979l12.375,-466.521c1.583,-59.667 -21.083,-117.433 -62.792,-160.121c-41.542,-42.508 -98.458,-66.462 -157.875,-66.462l-0.75,-0c-65.625,0.229 -132.959,2.191 -200.125,5.837c-31.625,1.713 -61.333,10.063 -87.875,23.55c-77.042,-12.787 -152.458,-14.246 -229.083,-4.517c-0.459,0.059 -0.917,0.117 -1.375,0.18c-104.875,13.983 -203.001,52.341 -285.25,110.516c-46.917,-27.046 -102.5,-36.166 -156.25,-24.716c-59,12.579 -119.875,26.471 -180.917,41.291c-40.229,9.771 -75.621,30.221 -103.463,57.892c-37.908,-10.679 -78.766,-11.263 -118.366,-0.379c-60.871,16.729 -124.196,34.892 -188.225,53.987c-16.85,5.025 -32.725,11.959 -47.463,20.484c-17.083,1.108 -34.15,4.208 -50.854,9.366c-120.783,37.317 -248.458,79.021 -390.312,127.509c-16.842,5.754 -32.642,13.416 -47.196,22.687c-17.209,1.679 -34.333,5.375 -51.021,11.175c-55.8,19.392 -114.038,39.879 -178.033,62.625c-40.775,14.492 -75.275,40.15 -100.567,72.796c-40.571,-9.208 -83.512,-6.904 -123.742,7.604c-33.045,11.913 -66.091,23.842 -99.137,35.771l-77.483,27.967c-10.846,3.912 -21.242,8.621 -31.142,14.033c-10.879,2.137 -21.679,5 -32.288,8.821c-109.287,39.333 -224.116,80.4 -341.404,121.229c-1.225,-2.533 -2.512,-5.033 -3.929,-7.458c30.671,-40.475 44.883,-90.634 40.238,-146.471c-4.263,-51.225 -26.963,-97.7 -63.921,-130.871c-29.425,-26.408 -81.375,-56.475 -161.888,-49.779c-60.229,5.012 -113.125,26.667 -155.692,60.787c-16.27,-16.341 -37.833,-27.65 -62.416,-30.921c-23.258,-3.095 -58.792,-6.824 -98.646,-3.512c-50.521,4.204 -95.154,18.55 -130.85,41.842c-20.771,-14.921 -46.317,-22.138 -72.167,-19.988l-6.333,0.529c-4.967,0.413 -9.9,1.171 -14.762,2.263l-50.101,11.254c-23.808,5.35 -44.383,18.333 -59.279,36.108c-0.445,-0.458 -0.9,-0.912 -1.358,-1.362c-15.729,-15.479 -35.633,-25.6 -56.933,-29.408l6.7,-37.905c10.291,-58.221 -27.992,-113.937 -86.034,-125.204c-36.679,-7.125 -69.975,-8.896 -107.933,-5.729c-105.304,8.763 -159.288,65.233 -186.025,111.067c-21.629,37.075 -31.133,76.295 -35.996,112.545c-3.087,1.642 -6.05,3.467 -8.942,5.38c-28.379,-16.009 -69.079,-28.954 -124.129,-24.371c-29.783,2.475 -56.725,10.046 -80.971,20.321c-11.391,-2.846 -23.287,-3.854 -35.216,-2.855l-4.417,0.367l0.913,-14.487c1.979,-31.421 -9.804,-62.146 -32.288,-84.184c-22.483,-22.033 -53.441,-33.183 -84.812,-30.591l-213.996,17.804c-53.563,4.458 -95.759,47.508 -99.138,101.15l-3.054,48.454c-1.979,31.421 9.809,62.146 32.292,84.183c10.079,9.879 21.862,17.575 34.625,22.821l-10.713,173.242c0,-0 -14.954,6.925 -22.875,11.387Z" style="fill:#e8252a;fill-rule:nonzero;"/><path d="M5287.75,438.75l-3.917,-133.467c2.5,-0.075 4.959,-0.15 7.459,-0.225l-3.542,133.692Zm-253.666,300.371c-1.959,0.646 -3.959,1.287 -6.001,1.925c2.917,-6.879 4.959,-14.158 6.001,-21.7l-0,19.775Zm-109.251,-262.617c-39.083,9.979 -66.416,45.2 -66.416,85.55l-0,73.617c-14.209,0.196 -21.459,-2.396 -23.5,-4.217c-4.417,-3.887 -12.709,-21.925 -12.709,-62.396c0,-41.862 9.167,-91.083 80.959,-100.208c5.417,-0.696 11.749,-1.042 18.791,-1.042c9.125,0 19.417,0.584 30.376,1.759c-9.167,2.287 -18.334,4.596 -27.501,6.937Zm-236.875,274.529c-30.416,-26.791 -45.875,-75.521 -45.875,-144.833c0,-15.912 1.25,-31.438 3.625,-46.471c-0.041,3.092 -0.083,6.2 -0.083,9.334c-0,86.725 24.292,152.212 72.25,194.645c4.125,3.646 8.375,7.096 12.75,10.334c-16.042,-5.05 -30.667,-12.471 -42.667,-23.009Zm-309,101.7c-21.75,4.75 -43.666,9.659 -65.708,14.709c-23.338,-27.338 -46.958,-54.809 -70.708,-82.275c19.041,10.829 41.916,14.512 64.333,9.133l6.083,-1.462c33.917,-8.1 59.292,-35.125 66,-68.242l0,128.137Zm-192.541,-132.27c-8.667,-18.863 -17.292,-37.7 -25.921,-56.517c0.804,1.025 1.612,2.05 2.416,3.075c13.046,23.737 26.046,47.529 39.088,71.371c-5.208,-5.984 -10.375,-11.954 -15.583,-17.929Zm-134.35,-115.788l-7.13,1.946c-32.612,8.896 -56.737,35.387 -63.279,67.55l0,-138.408c21.138,-6.142 42.134,-12.159 62.913,-18.03c25.916,32.425 51.712,64.863 77.196,97.092c-20.234,-12.529 -45.317,-16.783 -69.7,-10.15Zm-270.838,268.204l0,-139.075c8,-2.491 15.942,-4.954 23.842,-7.4l-0,145.496c-7.909,-0.717 -15.921,-0.471 -23.842,0.979Zm-178.083,192.142c0.987,-5.292 1.504,-10.729 1.504,-16.25l0,-55.975c0.233,24 10.225,46.712 27.396,63.062c-9.579,3.021 -19.209,6.075 -28.9,9.163Zm3.025,-412.346c-1.004,5.325 -1.525,10.796 -1.525,16.363l-0,56.633c-0.242,-24.146 -10.346,-46.971 -27.683,-63.334c9.799,-3.258 19.533,-6.474 29.208,-9.662Zm-178.109,332.342c-7.883,2.629 -15.895,5.325 -23.858,7.991l0,-143.916c7.908,0.8 15.929,0.608 23.858,-0.759l0,136.684Zm-200.445,95.354c-0.375,-27.029 -13.109,-52.359 -34.484,-68.779c21.029,-16.167 34.1,-41.329 34.484,-68.784l-0,137.563Zm-399.95,79.45l-0,-137.863c0.271,27.055 12.937,52.438 34.254,68.929c-20.979,16.238 -33.979,41.455 -34.254,68.934Zm-417.63,-70.608l0,60.604c-0.345,-24.775 -11.079,-48.125 -29.329,-64.496c10.2,-3.559 20.384,-7.125 30.538,-10.684c-0.8,4.763 -1.209,9.634 -1.209,14.576Zm-542.783,384.595c-5.375,11.621 -8.162,24.275 -8.162,37.08l-0,53.216c-0.167,-16.858 -5.159,-33.329 -14.396,-47.45c-48.113,-73.566 -93.958,-143.9 -138.7,-212.796c5.017,-1.458 10.041,-2.92 15.075,-4.391c20.087,39.408 40.175,78.779 60.266,118.12c15.826,30.992 48.355,49.805 83.126,48.03c2.308,-0.117 4.6,-0.325 6.866,-0.617c-1.362,2.942 -2.716,5.871 -4.075,8.808Zm-446.983,307.467c-22.421,5.625 -44.692,11.096 -66.734,16.4c-20.27,-23.083 -40.429,-46.125 -60.425,-69.058c16.863,7.15 35.955,9.062 54.709,4.646l6.3,-1.488c33.954,-8.054 59.4,-35.108 66.15,-68.283l-0,117.783Zm-192.596,-128.025c-2.646,-5.717 -5.292,-11.437 -7.933,-17.158c4.354,7.704 8.712,15.408 13.071,23.104c-1.713,-1.983 -3.43,-3.967 -5.138,-5.946Zm-128.471,-116.579l-6.917,1.383c-35.42,7.033 -62.35,34.679 -69.324,68.967l-0,-138.859c19.783,-3.608 39.687,-7.354 59.666,-11.22c22.246,28 44.779,56.262 67.508,84.646c-15.712,-6.467 -33.345,-8.442 -50.933,-4.917Zm-352.904,373.425c-2.471,-6.971 -4.937,-13.942 -7.408,-20.917c-9.125,-25.775 -29.292,-45.117 -53.83,-53.792c10.321,-16.17 15,-35.104 13.63,-53.916c16.775,42.592 33.654,85.375 50.6,128.258c-1,0.121 -1.992,0.246 -2.992,0.367Zm-177.958,-372.746c-2.446,0 -4.917,0.1 -7.396,0.304l-9.542,0.784c-7.279,0.587 -14.316,2.054 -20.987,4.295c1.3,-3.537 2.595,-7.075 3.896,-10.612c21.345,-1.613 42.812,-3.396 64.358,-5.35c2.487,6.354 4.987,12.75 7.483,19.117c-11.537,-5.496 -24.387,-8.538 -37.812,-8.538Zm-159.421,333.9c7.396,-19.833 14.804,-39.742 22.216,-59.692c2.459,13.15 7.901,25.738 16.126,36.709c-14.634,4.271 -27.813,12.246 -38.342,22.983Zm5048.95,-1187.11l12.375,-466.52c0.625,-23.867 -8.417,-46.971 -25.125,-64.05c-16.625,-17.005 -39.375,-26.584 -63.125,-26.584l-0.333,0c-63.375,0.221 -128.459,2.117 -193.417,5.642c-26.083,1.417 -48.875,14.075 -64.083,33.008c-2.125,-0.675 -4.292,-1.333 -6.5,-1.854c-80.667,-18.733 -158.125,-22.979 -236.834,-12.979c-0.208,0.021 -0.374,0.046 -0.541,0.071c-137.251,18.3 -251.209,85.441 -324.751,182.55l0,-12.138c0,-26.645 -12.041,-51.871 -32.749,-68.633c-20.709,-16.767 -47.875,-23.275 -73.959,-17.725c-57.666,12.3 -117.296,25.908 -177.212,40.458c-39.621,9.613 -67.454,45.063 -67.454,85.8l-0,73.409c-19.375,-24.292 -38.838,-48.605 -58.33,-72.859c-22.054,-27.441 -58.287,-39.154 -92.229,-29.833c-60.037,16.504 -122.437,34.404 -185.475,53.2c-17.837,5.321 -32.95,15.963 -43.933,29.833c-17.054,-5.495 -35.596,-5.779 -53.142,-0.358c-119.562,36.938 -246.012,78.246 -386.562,126.288c-17.967,6.137 -32.958,17.687 -43.434,32.445c-17.508,-5.204 -36.433,-4.958 -54.137,1.196c-55.187,19.179 -113.138,39.567 -177.162,62.321c-35.205,12.513 -58.725,45.833 -58.725,83.196l-0,159.137c-15.846,5.621 -31.488,11.179 -46.788,16.625l0,-95.7c0,-28.762 -14.004,-55.716 -37.542,-72.25c-23.529,-16.529 -53.637,-20.566 -80.695,-10.812c-31.73,11.441 -63.467,22.896 -95.196,34.35l-81.396,29.379c-11.146,4.017 -21.088,10.137 -29.492,17.792c-11.4,-0.534 -22.962,1.112 -34.033,5.095c-163.654,58.901 -339.717,121.705 -518.334,181.913c-0.754,0.254 -1.47,0.571 -2.208,0.842l-1.425,0.483c-0.842,0.258 -1.691,0.467 -2.529,0.75c-67.425,22.696 -132.95,44.246 -194.767,64.042c-25.437,8.146 -45.816,27.366 -55.437,52.279c-7.413,19.2 -14.825,38.383 -22.242,57.554c-1.296,-2.546 -2.591,-5.092 -3.887,-7.642c-19.388,-38.054 -63.225,-56.787 -104.109,-44.479c-67.454,20.283 -133.929,39.467 -197.579,57.017c-9.946,2.741 -19.187,7.179 -27.404,12.975c-10.038,-0.846 -20.262,0.017 -30.238,2.687c-58.508,15.655 -116.608,30.442 -172.674,43.954c-39.663,9.559 -67.613,45.042 -67.613,85.838l-0,66.112c-19.512,-24.495 -38.842,-48.837 -57.892,-72.916c-20.654,-26.1 -54.2,-38.379 -86.862,-31.733c-60.992,12.42 -121.767,23.729 -180.638,33.604c-42.529,7.137 -73.683,43.954 -73.683,87.079l0,280.558c-36.446,-92.612 -72.4,-184.287 -107.592,-274.35c-14.491,-37.083 -51.979,-59.883 -91.596,-55.658c-61.041,6.504 -122.083,11.637 -181.433,15.262c-35.033,2.134 -65.471,24.817 -77.533,57.771c-72.221,197.271 -144.613,392.454 -215.167,580.129c-10.175,27.071 -6.454,57.409 9.971,81.213c16.421,23.8 43.454,38.054 72.375,38.154c4.125,0.013 8.25,0.021 12.387,0.021c58.638,-0 118.563,-1.409 178.326,-4.2c36.612,-1.704 68.362,-25.854 79.783,-60.684c3.804,-11.604 7.608,-23.216 11.417,-34.833c19.262,-1.358 38.641,-2.854 58.07,-4.496c2.659,7.492 5.309,14.975 7.967,22.463c13.654,38.5 51.954,62.575 92.571,58.275c62.029,-6.613 125.912,-14.767 189.862,-24.234c10.921,-1.612 21.275,-5.266 30.642,-10.583c5.979,1.267 12.079,1.988 18.246,1.988c4.662,-0 9.354,-0.371 14.025,-1.121c58.029,-9.338 117.812,-19.992 177.692,-31.671c41.466,-8.092 71.391,-44.417 71.391,-86.663l0,-53.449c19.325,22.066 38.767,44.187 58.263,66.299c21.47,24.35 54.566,34.942 86.195,27.613c61.213,-14.212 124.667,-29.867 188.596,-46.533c38.888,-10.138 66.021,-45.255 66.021,-85.438l0,-389.871c27.934,42.917 56.375,86.525 85.654,131.325l0,185.613c0,27.829 13.117,54.029 35.405,70.7c15.445,11.554 34.045,17.596 52.891,17.596c8.342,-0 16.738,-1.184 24.925,-3.596c57.15,-16.817 117.042,-35.013 178.013,-54.079c36.845,-11.525 61.937,-45.659 61.937,-84.271l0,-192.925c35.421,-76.579 71.667,-155.225 108.417,-235.196c13.187,1.758 26.779,0.571 39.746,-3.779c16.408,-5.504 32.916,-11.071 49.616,-16.729l0,325.845c0,28.484 13.738,55.221 36.9,71.801c15.188,10.866 33.196,16.495 51.4,16.495c9.559,0 19.18,-1.554 28.463,-4.716c55.558,-18.925 113.508,-38.913 177.166,-61.1c35.471,-12.359 59.234,-45.809 59.234,-83.371l-0,-387.992c20.462,-7.279 41.808,-14.887 64.458,-22.979l0,326.204c0,28.667 13.917,55.55 37.325,72.1c15.109,10.679 32.95,16.196 50.975,16.196c9.9,-0 19.858,-1.667 29.442,-5.054l79.2,-28.038c32.454,-11.491 64.912,-22.983 97.371,-34.462c35.275,-12.471 58.858,-45.825 58.858,-83.242l0,-169.292c15.033,-5.345 30.688,-10.904 46.788,-16.612l-0,107.388c-0,28.595 13.849,55.416 37.154,71.979c23.308,16.558 53.191,20.808 80.191,11.396c63.5,-22.125 121.067,-41.98 176.005,-60.692c17.77,-6.054 32.641,-17.409 43.116,-31.925c8.288,2.504 16.892,3.821 25.554,3.821c9.413,-0 18.875,-1.5 28.03,-4.567c138.916,-46.521 263.729,-86.433 381.558,-122.017c17.475,-5.279 32.312,-15.675 43.196,-29.195c8.879,2.912 18.171,4.408 27.529,4.408c8.258,-0 16.571,-1.158 24.683,-3.521c58.858,-17.146 117.092,-33.479 173.075,-48.546c38.55,-10.375 65.346,-45.333 65.346,-85.258l0,-63.838c19.233,22.417 38.317,44.775 57.192,67c21.541,25.305 55.37,36.405 87.704,28.721c62.254,-14.796 124.046,-28.533 183.713,-40.837c41.041,-8.459 70.457,-44.584 70.457,-86.475l0,-55.784c5.084,5.213 10.251,10.305 15.751,15.134c57.833,50.887 134.749,76.487 229.291,76.487c24.417,0 50,-1.712 76.751,-5.133c104.499,-13.109 191.874,-40.179 258.624,-64.038c0.5,0.48 0.917,1.004 1.375,1.471c16.501,15.725 38.334,24.446 61,24.446c1.334,-0 2.709,-0.033 4.042,-0.096c56.167,-2.579 112.417,-3.883 167.292,-3.883c1.75,-0 3.541,0.066 5.25,0.004c23.375,0 45.833,-9.283 62.374,-25.817c16.584,-16.562 25.918,-39.037 25.918,-62.479l-0,-87.292c-0,-12.616 -2.667,-24.72 -7.542,-35.708c1.292,-5.671 2.041,-11.5 2.208,-17.417Z" style="fill:#422f8f;fill-rule:nonzero;"/><path d="M604.45,1785.2c-12.358,-39.579 -24.721,-79.2 -37.079,-118.854c-1.767,-14.467 -3.534,-28.934 -5.3,-43.4c-3.238,0.266 -6.475,0.533 -9.713,0.791c-1.471,14.734 -2.941,29.463 -4.412,44.192c-12.071,41.637 -24.134,83.204 -36.2,124.7c30.9,-2.125 61.804,-4.604 92.704,-7.429Zm-168.633,236.8c-62.1,2.896 -124.2,4.291 -186.296,4.079c71.808,-191.021 143.616,-384.696 215.429,-580.842c61.804,-3.775 123.608,-9.012 185.413,-15.595c72.104,184.508 144.208,367.683 216.312,549.704c-62.096,9.191 -124.196,17.154 -186.292,23.779c-10.3,-29.034 -20.604,-58.092 -30.904,-87.175c-61.212,6.15 -122.429,10.979 -183.646,14.375c-10.004,30.608 -20.012,61.167 -30.016,91.675Z" style="fill:#ffc628;fill-rule:nonzero;"/><path d="M1146.57,1698.88c-12.067,-26.083 -24.133,-52.196 -36.2,-78.337c-2.354,0.47 -4.708,0.941 -7.063,1.408l0,316.683c-58.275,11.367 -116.546,21.788 -174.816,31.163l-0,-578.509c61.212,-10.27 122.429,-21.695 183.641,-34.162c53.271,67.325 106.542,134.004 159.809,200.125c16.483,29.171 32.962,58.292 49.445,87.367c2.059,-0.484 4.121,-0.971 6.18,-1.459l-0,-334.012c58.271,-14.046 116.541,-28.908 174.816,-44.504l0,582.479c-62.1,16.187 -124.195,31.55 -186.296,45.967c-56.504,-64.084 -113.012,-128.788 -169.516,-194.209Z" style="fill:#ffc628;fill-rule:nonzero;"/><path d="M1764.62,1774.19l-0,-211.917c-67.984,-103.946 -135.967,-208.383 -203.954,-313.467c66.512,-18.337 133.025,-37.579 199.537,-57.583c31.2,61.254 62.396,122.417 93.592,183.508c31.196,-80.337 62.392,-160.904 93.587,-241.687c65.338,-20.925 130.671,-42.45 196.009,-64.446c-67.396,147.371 -134.792,293.95 -202.188,439.583l0,212.359c-58.862,18.408 -117.721,36.325 -176.583,53.65Z" style="fill:#ffc628;fill-rule:nonzero;"/><path d="M2492.15,1086.51l0,450.355c-58.858,20.516 -117.721,40.845 -176.579,60.895l-0,-449.42c-55.329,19.141 -110.658,38.033 -165.988,56.595l0,-138.42c173.342,-58.43 346.688,-120.117 520.034,-182.505c-5.004,48.225 -10.009,96.438 -15.009,144.642c-54.154,19.387 -108.304,38.7 -162.458,57.858Z" style="fill:#ffc628;fill-rule:nonzero;"/><path d="M2909.78,797.375l0,220.979c74.458,-26.65 148.917,-53.212 223.375,-79.483l-0,-221.554c58.863,-20.921 117.721,-41.663 176.583,-62.121l0,594.991c-58.862,20.055 -117.72,40.384 -176.583,60.896l-0,-232.191c-74.458,26.154 -148.917,52.591 -223.375,79.121l0,231.587c-58.863,20.812 -117.721,41.679 -176.583,62.5l-0,-591c58.862,-21.229 117.72,-42.504 176.583,-63.725Z" style="fill:#ffc628;fill-rule:nonzero;"/><path d="M3790.94,957.029l-0,137.525c-128.025,38.663 -256.046,79.946 -384.071,122.817l-0,-136.913c34.433,-11.587 68.871,-23.058 103.304,-34.391l0,-322.225c-34.433,11.462 -68.867,23.062 -103.304,34.779l-0,-136.917c128.025,-43.754 256.046,-85.925 384.071,-125.475l-0,137.525c-34.729,10.675 -69.459,21.542 -104.188,32.579l0,322.884c34.729,-10.909 69.459,-21.646 104.188,-32.188Z" style="fill:#ffc628;fill-rule:nonzero;"/><path d="M4105.26,766.146c-12.067,-26.371 -24.134,-52.696 -36.196,-78.979c-2.359,0.641 -4.713,1.283 -7.067,1.925l0,327.875c-58.271,15.683 -116.546,32.058 -174.817,49.029l0,-598.992c61.217,-18.25 122.434,-35.846 183.646,-52.671c53.271,66.288 106.546,133.309 159.796,201.134c16.5,30.008 32.958,60.1 49.458,90.275c2.038,-0.496 4.121,-0.988 6.163,-1.479l-0,-345.784c58.291,-14.15 116.546,-27.483 174.837,-39.904l0,602.963c-62.125,12.804 -124.208,26.65 -186.296,41.412c-56.495,-66.492 -113.016,-132.063 -169.524,-196.804Z" style="fill:#ffc628;fill-rule:nonzero;"/><path d="M5116.21,799.225c-72.375,26.554 -155.375,52.783 -256.042,65.408c-194.25,24.875 -312.541,-54.337 -312.541,-261.137c0,-196.717 143.042,-341.796 338.167,-367.813c71.5,-9.083 138.583,-4.195 205.708,11.396c-8.542,52.638 -17.083,105.283 -25.625,157.946c-56.5,-21.75 -130.667,-32.796 -180.083,-26.458c-98.917,12.575 -158.084,79.65 -158.084,187.791c0,132.717 68,163.288 151,153.104c22.083,-2.725 45.042,-8.979 61.792,-15.329l-0,-144.783c41.792,-10.671 83.583,-20.742 125.375,-30.179c16.792,-1.363 33.542,-2.621 50.333,-3.775l0,273.829Z" style="fill:#ffc628;fill-rule:nonzero;"/><path d="M5192.17,696.05c58.833,11.429 117.708,24.229 176.583,38.504l0,87.296c-58.875,-0.088 -117.75,1.271 -176.583,3.975l-0,-129.775Zm171.25,-16.958c-54.709,-13.854 -109.459,-26.438 -164.208,-37.821c-4.126,-141.092 -8.251,-282.15 -12.376,-423.188c63,-3.412 126,-5.291 188.958,-5.508c-4.125,155.521 -8.249,311.025 -12.374,466.517Z" style="fill:#ffc628;fill-rule:nonzero;"/><path d="M294.337,1104.94c-11.408,0 -22.433,-4.425 -30.7,-12.429c-9.15,-8.854 -14.029,-21.229 -13.387,-33.946l2.408,-47.691c1.117,-22.084 18.396,-39.934 40.434,-41.767l37.975,-3.158l18.066,-292.108l-23.041,1.916c-12.771,1.058 -25.396,-3.487 -34.559,-12.467c-9.162,-8.979 -13.966,-21.5 -13.158,-34.304l3.054,-48.458c1.375,-21.858 18.571,-39.4 40.4,-41.217l213.992,-17.804c12.787,-1.054 25.4,3.488 34.562,12.467c9.163,8.979 13.967,21.5 13.159,34.304l-3.054,48.458c-1.376,21.859 -18.571,39.4 -40.4,41.217l-40.792,3.396l-18.067,292.104l25.854,-2.15c12.696,-1.054 25.217,3.417 34.367,12.275c9.15,8.854 14.029,21.229 13.383,33.946l-2.408,47.692c-1.112,22.083 -18.392,39.933 -40.429,41.766l-213.996,17.804c-1.221,0.105 -2.446,0.154 -3.663,0.154Z" style="fill:#422f8f;fill-rule:nonzero;"/><path d="M587.875,1080.51c-11.533,0 -22.662,-4.516 -30.954,-12.67c-9.167,-9.013 -13.95,-21.575 -13.096,-34.405l22.038,-331.424c1.287,-19.38 15.091,-35.642 34.008,-40.059l42.412,-9.908c2.104,-0.492 4.238,-0.829 6.392,-1.009l7.742,-0.641c11.254,-0.921 22.45,2.491 31.241,9.533c24.88,-13.796 52.963,-24.337 84.959,-27c83.187,-6.908 141.154,39.588 147.716,118.479c1.05,12.592 0.513,25.559 -0.004,38.1c-0.017,0.379 -0.037,0.763 -0.062,1.146l-15.221,225.958c-1.467,21.78 -18.634,39.217 -40.392,41.026l-56.312,4.683c-12.804,1.062 -25.488,-3.521 -34.659,-12.563c-9.166,-9.041 -13.929,-21.637 -13.041,-34.479l14.12,-204.008c0.096,-2.142 0.209,-4.509 0.334,-7.025c0.433,-8.759 1.083,-22 0.525,-28.738c-0.092,-1.104 -0.2,-2.058 -0.313,-2.883c-1.521,-0.033 -3.475,0.004 -5.937,0.208c-20.217,1.684 -47.146,18.871 -66.025,37.242l-15.108,224.571c-1.467,21.779 -18.634,39.216 -40.388,41.029l-56.313,4.687c-1.224,0.101 -2.445,0.15 -3.662,0.15Z" style="fill:#422f8f;fill-rule:nonzero;"/><path d="M874,1240.85c-13.112,-0 -27.679,-0.996 -43.787,-4.029c-21.921,-4.129 -37.321,-23.967 -35.884,-46.234l3.409,-52.733c0.841,-13.021 7.395,-25 17.908,-32.725c10.512,-7.725 23.904,-10.408 36.579,-7.325c6.733,1.637 25.2,4.125 35.179,3.304c23.521,-1.954 41.95,-9.65 47.454,-87.621l16.4,-247.283c-12.758,0.95 -25.358,-3.729 -34.437,-12.796c-9.179,-9.175 -13.863,-21.921 -12.796,-34.854l3.167,-38.533c1.5,-18.196 14.041,-33.596 31.558,-38.742l21.438,-6.296l0.687,-8.341c3.992,-50.663 14.621,-185.663 166.829,-198.33c32.279,-2.687 59.313,-1.258 90.384,4.775c23.649,4.592 39.249,27.296 35.058,51.021l-9.158,51.796c-2.121,12.012 -9.121,22.608 -19.33,29.275c-10.208,6.671 -22.729,8.821 -34.575,5.937c-17.912,-4.358 -35.741,-6.091 -50.196,-4.891c-17.012,1.417 -28.037,2.337 -33.637,49.579l60.025,-4.992c12.767,-1.058 25.371,3.475 34.533,12.434c9.159,8.962 13.975,21.458 13.196,34.245l-3,49.155c-1.333,21.895 -18.541,39.491 -40.404,41.308l-74.038,6.162l-17.891,270.676c-9.142,133.529 -68.9,205.77 -177.617,214.816c-8.229,0.684 -17.237,1.242 -27.054,1.242Z" style="fill:#422f8f;fill-rule:nonzero;"/><path d="M1305.62,1028.78c-42.429,0 -69.925,-14.429 -86.046,-27.371c-26.263,-21.071 -41.854,-52.821 -45.1,-91.812c-1.046,-12.592 -0.513,-25.554 0.004,-38.088c0.021,-0.425 0.046,-0.862 0.071,-1.283l15.575,-221.729c1.367,-19.455 15.337,-35.704 34.362,-39.98l50.1,-11.254c1.98,-0.446 3.992,-0.758 6.017,-0.925l6.333,-0.525c12.817,-1.075 25.459,3.509 34.629,12.53c9.163,9.02 13.942,21.591 13.08,34.42l-13.888,206.775c-0.091,2.188 -0.296,5.409 -0.558,9.229c-0.433,6.396 -1.454,21.38 -1.008,26.738c0.091,1.1 0.2,2.054 0.308,2.875c1.512,0.037 3.466,-0.004 5.937,-0.204c20.596,-1.717 47.78,-18.933 66.729,-37.321l14.759,-220.258c1.308,-19.509 15.291,-35.838 34.371,-40.121l50.1,-11.254c1.979,-0.446 3.991,-0.755 6.016,-0.921l6.334,-0.529c12.808,-1.067 25.454,3.508 34.621,12.529c9.166,9.016 13.945,21.583 13.087,34.412l-22.746,339.988c-1.458,21.787 -18.625,39.237 -40.387,41.046l-49.275,4.1c-11.113,0.916 -22.117,-2.388 -30.846,-9.213c-24.996,13.825 -53.717,24.758 -86.008,27.442c-5.759,0.479 -11.284,0.704 -16.571,0.704Z" style="fill:#422f8f;fill-rule:nonzero;"/><path d="M1645.86,999.913c-24.987,-0 -53.529,-2.221 -78.579,-6.313c-23.737,-3.879 -40.004,-26.046 -36.579,-49.854l7.633,-53.083c1.705,-11.842 8.142,-22.488 17.838,-29.496c9.696,-7.009 21.821,-9.779 33.6,-7.684c34.5,6.142 55.404,8.079 72.129,6.692c15.567,-1.296 24.513,-4.642 28.408,-6.792c-4.55,-4.837 -22.45,-12.179 -33.358,-16.654c-39.046,-16.012 -104.4,-42.816 -111.379,-126.712c-7.063,-84.884 56.208,-145.371 161.183,-154.104c33.654,-2.805 64.55,0.466 84.863,3.17c23.816,3.171 40.729,24.813 38.045,48.688l-6.108,54.379c-1.425,12.683 -8.262,24.125 -18.758,31.383c-10.496,7.254 -23.613,9.63 -35.988,6.475c-17.629,-4.479 -33.283,-6.862 -56.85,-4.9c-6.062,0.504 -10.7,1.271 -14.191,2.071c7.15,3.913 17.891,8.35 25.845,11.638c39.713,16.412 106.192,43.887 113.242,128.645c7.304,87.788 -58.65,152.667 -164.121,161.442c-8.162,0.679 -17.258,1.009 -26.875,1.009Z" style="fill:#422f8f;fill-rule:nonzero;"/><path d="M2029.03,668.121c-0.75,-0 -1.575,0.033 -2.479,0.108c-21.538,1.792 -36.796,13.271 -46.975,29.067c12.229,-2.054 23.758,-4.646 33.567,-8.05c21.279,-7.379 20.85,-12.521 20.595,-15.592c-0.212,-2.566 -0.591,-4.229 -0.887,-5.204c-0.854,-0.171 -2.138,-0.329 -3.821,-0.329Zm-46.942,304.087c-74.325,0 -155.087,-31.696 -166.17,-164.895c-6.201,-74.475 10.608,-140.617 48.612,-191.271c37.796,-50.384 94.258,-81.1 158.988,-86.484c57.695,-4.816 93.666,15.613 113.691,33.584c24.721,22.183 39.929,53.583 42.821,88.42c4.033,48.396 -8.933,114.313 -93.571,153.492c-29.825,13.804 -64.091,22.046 -98.358,27.384c3.304,0.187 6.95,0.016 10.979,-0.317c28.904,-2.408 57.892,-10.263 93.979,-25.475c13.033,-5.496 27.913,-4.409 40.013,2.917c12.1,7.329 19.958,20.008 21.129,34.104l4.333,52.087c1.604,19.338 -9.596,37.459 -27.612,44.654c-39.721,15.871 -87.704,27.671 -125.23,30.792c-7.733,0.642 -15.629,1.008 -23.604,1.008Z" style="fill:#422f8f;fill-rule:nonzero;"/><path d="M294.342,1060.79l2.408,-47.687l76.025,-6.325l23.571,-381.167l-73.913,6.15l3.054,-48.454l213.996,-17.808l-3.054,48.458l-78.837,6.559l-23.575,381.162l76.729,-6.383l-2.409,47.691l-213.995,17.804Z" style="fill:#ffc628;fill-rule:nonzero;"/><path d="M804.683,1018.33l14.163,-204.6c0.471,-11.383 1.767,-29.921 0.767,-41.883c-2.167,-26.046 -13.071,-46.4 -53.901,-43.005c-40.124,3.338 -82.775,35.946 -105.362,62.634l-16.163,240.208l-56.312,4.688l22.037,-331.425l42.417,-9.909l7.742,-0.641l1.637,36.716c35.905,-28.5 71.63,-50.612 114.571,-54.183c61.238,-5.096 95.609,24.646 100.063,78.142c0.816,9.858 0.35,21.237 -0.121,32.621l-15.221,225.954l-56.317,4.683Z" style="fill:#ffc628;fill-rule:nonzero;"/><path d="M841.792,1140.7c8.683,2.112 32.383,5.808 49.275,4.404c71.096,-5.917 83.6,-68.617 87.829,-128.508l19.808,-298.638l-50.683,4.217l3.171,-38.538l50.508,-14.833l3.175,-38.542c5.171,-65.641 19.492,-149.054 126.492,-157.954c26.745,-2.229 50.212,-1.341 78.308,4.113l-9.158,51.8c-23.875,-5.809 -45.988,-7.513 -64.288,-5.988c-53.5,4.45 -70.633,37.059 -75.862,110.504l-2.354,31.379l111.925,-9.312l-2.996,49.154l-111.925,9.313l-20.392,308.608c-5.762,84.117 -32.342,165.004 -137.229,173.733c-19.708,1.638 -38.129,1.755 -59.013,-2.179l3.409,-52.733Z" style="fill:#ffc628;fill-rule:nonzero;"/><path d="M1284.26,640.329l6.338,-0.529l-13.934,207.421c-0.175,6.392 -2.466,29.975 -1.47,41.941c2.166,26.046 13.075,46.401 53.904,43c40.125,-3.337 83.475,-36.004 106.066,-62.695l15.809,-235.925l50.096,-11.255l6.333,-0.525l-22.742,339.984l-49.275,4.1l-1.579,-36.017c-35.904,28.509 -72.337,50.675 -115.275,54.246c-61.242,5.096 -95.612,-24.65 -100.062,-78.146c-0.821,-9.858 -0.35,-21.233 0.12,-32.616l15.576,-221.73l50.095,-11.254Z" style="fill:#ffc628;fill-rule:nonzero;"/><path d="M1785.79,602.846l-6.109,54.375c-20.996,-5.333 -41.82,-8.567 -71.383,-6.109c-21.825,1.817 -63.767,8.85 -60.604,46.863c5.329,64.054 136.554,39.675 145.166,143.15c5.913,71.096 -54.804,108.042 -123.787,113.783c-27.45,2.288 -65.933,-0.183 -94.679,-4.879l7.633,-53.083c35.254,6.279 61.009,9.096 83.533,7.221c33.084,-2.755 72.446,-15.238 69.284,-53.25c-5.738,-68.992 -136.671,-41.084 -145.279,-144.563c-4.98,-59.829 41.308,-99.829 120.85,-106.446c26.75,-2.229 52.441,-0.116 75.375,2.938Z" style="fill:#ffc628;fill-rule:nonzero;"/><path d="M2077.73,669.992c-3.279,-39.417 -31.612,-47.692 -54.841,-45.759c-58.43,4.863 -98.967,54.304 -103.788,124.167c72.504,-6.029 163.958,-14.35 158.629,-78.408Zm36.809,229.421c-33.613,13.433 -78.021,24.92 -112.513,27.791c-96.442,8.025 -135.087,-39.083 -142.117,-123.55c-10.954,-131.633 61.679,-221.317 167.267,-230.104c73.208,-6.092 105.287,38.725 108.862,81.671c9.43,113.325 -118.687,132.491 -217.233,140.692c4.217,50.683 26.209,85.004 83.929,80.199c37.309,-3.104 71.859,-13.775 107.471,-28.787l4.334,52.088Z" style="fill:#ffc628;fill-rule:nonzero;"/></g></svg>